<svg xmlns="http://www.w3.org/2000/svg" width="100%" viewBox="0 0 890.302 489.3">
  <path fill="#e6e6e6" d="M182.972.399h703.576V451H182.972z"/>
  <path fill="#fff" d="M245.187 60.907h254v261h-254zM594.187 65.969h254v317h-254z"/>
  <ellipse cx="844.802" cy="477.262" fill="#e6e6e6" rx="45.5" ry="6.5"/>
  <ellipse cx="389.9" cy="477.407" fill="#e6e6e6" rx="45.5" ry="6.5"/>
  <ellipse cx="104.425" cy="470.907" fill="#e6e6e6" rx="104.425" ry="5"/>
  <path fill="#dd6b20" d="M182.672 0h703.576v29.89H182.672z"/>
  <circle cx="204.884" cy="15.282" r="5.54" fill="#e6e6e6"/>
  <circle cx="225.913" cy="15.282" r="5.54" fill="#e6e6e6"/>
  <circle cx="246.941" cy="15.282" r="5.54" fill="#e6e6e6"/>
  <path fill="#3f3d56" d="M792.187 150.999h-1.539v-42.15a24.396 24.396 0 00-24.395-24.397H676.95a24.396 24.396 0 00-24.396 24.396V340.09a24.396 24.396 0 0024.396 24.396h89.302a24.396 24.396 0 0024.395-24.396V181.002h1.539z"/>
  <path fill="#fff" d="M766.237 90.8H754.58a8.655 8.655 0 01-8.014 11.924h-51.16a8.656 8.656 0 01-8.013-11.925h-10.888a18.218 18.218 0 00-18.218 18.219V339.92a18.218 18.218 0 0018.218 18.218h89.732a18.218 18.218 0 0018.218-18.218V109.018a18.218 18.218 0 00-18.218-18.219z"/>
  <path fill="#e6e6e6" d="M284.09 225.776h176.544v8.053H284.09z"/>
  <path fill="#dd6b20" d="M284.09 251.776h176.544v8.053H284.09z"/>
  <path fill="#e6e6e6" d="M284.09 277.776h176.544v8.053H284.09zM670.839 243.346h103.064v8.053H670.839zM670.839 268.346h103.064v8.053H670.839zM670.839 293.346h103.064v8.053H670.839z"/>
  <path fill="#3f3d56" d="M784.68 401.214v17.177h-17.178v-17.177z"/>
  <path fill="#dd6b20" d="M757.005 401.213v17.177h-17.177v-17.177z"/>
  <path fill="#3f3d56" d="M729.33 401.214v17.177h-17.177v-17.177zM701.656 401.213v17.177h-17.177v-17.177zM673.981 401.214v17.177h-17.177v-17.177z"/>
  <path fill="#dd6b20" d="M692.742 138.99H750v57.258h-57.258z"/>
  <path fill="#a0616a" d="M349.605 275.593l-.74 1.482-2.224-11.117s-2.965-11.858 2.964-11.858 4.447 11.858 4.447 11.858v8.153zM446.846 274.075l.742 1.482 2.223-11.117s2.965-11.858-2.965-11.858-4.446 11.858-4.446 11.858v8.153z"/>
  <path fill="#2f2e41" d="M382.215 358.94l-8.893 54.844 4.446 53.361 10.376-4.446-1.482-40.022 10.376-31.869 2.223 37.798-4.446 39.28 13.34 1.483 9.635-80.784-.741-27.422-34.834-2.223z"/>
  <path fill="#2f2e41" d="M382.215 460.475l-5.188 8.153v18.216a2.209 2.209 0 001.857 2.18c2.542.418 6.97.714 8.52-1.868 2.223-3.706.74-11.858.74-11.858s2.965-5.93 1.483-10.376-2.965-5.188-2.965-5.188zM404.45 467.887l1.482 2.223s2.223 2.223.74 3.706a28.966 28.966 0 00-2.964 3.705s-8.152 2.224-8.152-.74v-9.636z"/>
  <circle cx="401.778" cy="288.795" r="9.824" fill="#a0616a"/>
  <path fill="#a0616a" d="M395.185 291.867l-.741 14.082 13.34.741-.741-14.082-11.858-.741z"/>
  <path fill="#575a89" d="M409.637 307.06l-2.104-5.14s-9.754-3.753-12.718-.048l-1.483 4.447-11.858-2.964-6.67 14.822 5.929 42.245s15.564 20.01 36.316.741l5.929-40.021-4.447-15.564z"/>
  <path fill="#575a89" d="M417.049 308.543l1.482-2.965 14.823-8.894 9.046-26.777 7 3-7.894 31.93-21.493 20.01-2.964-16.304zM382.956 304.837l-1.482-1.482-15.564-9.635-11.117-22.234-8.893 2.964 9.634 27.422 23.717 19.27 3.705-16.305z"/>
  <path fill="#2f2e41" d="M409.07 273.75l1.606-.803-2.41-.803v-.803s-12.047-4.819-13.653 3.212a16.143 16.143 0 000 19.276v2.41l12.85 1.606 1.607-4.82s8.031-14.456 0-19.275z"/>
  <path fill="#ffb8b8" d="M115.09 359.81l-2.856 1.427s-11.421 5.235-8.09 8.09 12.373-2.855 12.373-2.855l1.904-2.38z"/>
  <path fill="#2f2e41" d="M198.633 359.099l-8.826 59.247-13.326 41.403-7.138-3.331 6.662-56.632-19.036-16.181 1.428-23.795 40.236-.711z"/>
  <path fill="#2f2e41" d="M168.39 457.846s8.091-4.283 8.567 1.903l-.952 6.187s2.856 10.946-6.662 8.566-2.856-9.518-2.856-9.518zM163.156 378.37l-6.187 5.235s0 32.361 4.283 37.12 31.41 29.03 32.362 29.982 5.235-9.518 5.235-9.518l-25.699-29.982 1.904-18.56z"/>
  <path fill="#2f2e41" d="M195.993 439.761s7.615-1.427 7.615 3.808a115.231 115.231 0 00.952 12.373s1.903 16.657-4.284 14.277-8.566-19.036-8.566-19.036a7.09 7.09 0 012.856-3.331c1.903-.952 1.427-8.09 1.427-8.09z"/>
  <path fill="#ffb8b8" d="M172.198 288.424l1.428 17.609-3.807 6.662-10.47-9.994-.952-13.325 13.801-.952z"/>
  <circle cx="163.632" cy="282.713" r="11.422" fill="#ffb8b8"/>
  <path fill="#d0cde1" d="M168.391 305.557l4.759-13.801 8.566 9.518 15.705 60.439-11.898 7.139-5.234-7.615-.952 9.994-23.32-4.759-1.903-63.771 4.756-6.699 9.521 9.555z"/>
  <path fill="#2f2e41" d="M161.728 373.135l-2.855-77.096-6.187 4.759-11.422 7.614 7.615 27.127 2.379 28.554 10.47 9.042z"/>
  <path fill="#2f2e41" d="M144.596 308.888l-3.332-.476-9.518 28.078-19.036 23.796 7.139 7.614 21.891-21.416 8.091-17.608-5.235-19.988z"/>
  <path fill="#ffb8b8" d="M196.568 360.245l-.65 3.126s-2.97 12.208 1.336 11.363 5.428-11.48 5.428-11.48l-.688-2.968z"/>
  <path fill="#2f2e41" d="M172.406 290.983l23.587 9.339-2.855 28.554 5.711 31.41-5.711 6.186-21.116-71.444.384-4.045zM164.23 263.53l3.352-1.676v1.676l2.236-1.117v2.794s8.381 6.146 6.705 13.41-1.677 7.823-1.677 7.823-2.119-13.814-10.5-11.58-9.056 2.64-11.291 8.786l-.607 2.637s-9.451-21.635 11.782-22.753z"/>
  <path fill="#2f2e41" d="M192.662 300.322h3.807l6.187 33.313v29.03l-7.614-1.428-6.187-43.783 3.807-17.132z"/>
  <path fill="#dd6b20" d="M3.535 370.772h140.321v97.511H3.535z"/>
  <path fill="#fff" d="M73.695 389.798a29.729 29.729 0 1029.73 29.73 29.816 29.816 0 00-29.73-29.73zm0 8.919a8.919 8.919 0 11-8.918 8.919 8.949 8.949 0 018.918-8.92zm0 42.935a21.657 21.657 0 01-17.837-9.519c.143-5.945 11.892-9.218 17.837-9.218s17.695 3.273 17.838 9.218a21.693 21.693 0 01-17.838 9.52z"/>
  <path fill="#e6e6e6" d="M284.187 90.907h176v101h-176z"/>
  <path fill="#ffb8b8" d="M808.202 291.234l.816-5.26s4.753-10.805.996-11.388-6.891 9.704-6.891 9.704l1.375 10.986z"/>
  <path fill="#575a89" d="M846.67 321.051l-33.581-6.745-3.902-24.459-9.885-.763.483 31.623 29.177 15.297 17.708-14.953z"/>
  <path d="M846.67 321.051l-33.581-6.745-3.902-24.459-9.885-.763.483 31.623 29.177 15.297 17.708-14.953z" opacity=".2"/>
  <path fill="#dd6b20" d="M858.377 284.764H755.313v-8.053h103.064z"/>
  <path fill="#ffb8b8" d="M801.641 289.43l.007-5.322s3.056-11.402-.746-11.407-5.336 10.639-5.336 10.639l3.028 10.649z"/>
  <path fill="#2f2e41" d="M845.353 304.675l4.608-1.123a11.862 11.862 0 0011.641-14.211 15.504 15.504 0 00-15.484-15.524 15.504 15.504 0 00-15.524 15.485 12.32 12.32 0 0014.76 15.373zM818.254 381.458l3.751 41.066 6.792 40.309 11.406.014-1.471-39.542-6.023-47.912-14.455 6.065z"/>
  <path fill="#2f2e41" d="M830.321 460.554l-7.61 4.552s-12.168 1.506-9.891 5.31 28.893 1.558 28.894.037-.748-9.886-2.268-9.888zM851.922 377.91s-.214 5.871-5.548 14.99l.725 28.135 27.33 35.012-9.895 8.352-33.41-38.062-8.307-45.634 10.66-10.632z"/>
  <path fill="#2f2e41" d="M872.148 456.044s9.123 1.532 7.597 5.332-5.35 21.284-15.231 18.99c0 0-4.563-.005-3.038-3.045a55.004 55.004 0 013.048-5.319l.013-9.885z"/>
  <circle cx="840.415" cy="294.041" r="11.406" fill="#ffb8b8"/>
  <path fill="#ffb8b8" d="M845.728 301.652l-.016 12.926-12.166-.015 1.537-12.924 10.645.013z"/>
  <path fill="#575a89" d="M830.51 309.997l3.687-.906 11.52.925s6.076 6.09 5.314 7.61-4.611 38.775-4.611 38.775l6.81 26.622-24.334 1.49-12.164-1.536 2.34-47.902s-5.306-12.933 1.543-16.726a29.954 29.954 0 009.895-8.352z"/>
  <path fill="#575a89" d="M844.193 313.056l-34.215-1.564-7.574-23.581-9.886.747 5.283 31.183 31.163 10.685 15.229-17.47z"/>
  <circle cx="862.432" cy="278.279" r="7.359" fill="#2f2e41"/>
  <path fill="#2f2e41" d="M855.643 274.323a7.355 7.355 0 018.807-7.204 7.355 7.355 0 10-4.588 13.862 7.353 7.353 0 01-4.22-6.658zM849.33 278.497l-9.921-1.827-7.63 4.782a11.573 11.573 0 00-5.331 11.295l7.641-1.937 1.711-4.29 2.038 3.34 8.267 14.454 8.37-4.552 5.333-8.358z"/>
  <path fill="#fff" d="M283.69 91.775l.995-1.735 176 101-.996 1.735z"/>
  <path fill="#fff" d="M283.686 191.033L459.694 90.047l.995 1.735-176.008 100.986zM692.48 139.614l1.414-1.414 57 57-1.414 1.414z"/>
  <path fill="#fff" d="M692.48 195.2l57-57 1.414 1.414-57 57z"/>
</svg>
